<svg xmlns="http://www.w3.org/2000/svg" xml:space="preserve" fill-rule="evenodd" stroke-linejoin="round" stroke-miterlimit="2" clip-rule="evenodd" viewBox="0 0 48 48"><g fill-rule="nonzero"><path fill="#2979ff" d="M24.58 3.76H9.43a3.8 3.8 0 0 0-3.78 3.78v30.29a3.8 3.8 0 0 0 3.78 3.78H20a10.16 10.16 0 0 1-1.98-1.69 4.53 4.53 0 0 1-1.02-2.1H9.43V7.54h13.25v9.47h9.47V18c1.34.3 2.84 1.83 3.79 2.8v-5.7L24.58 3.76"/><path fill="#f4511e" d="M29.21 44s-4.15-.71-6.04-1.6c-1.09-.54-2.41-1.64-2.41-2 0-.13.27-.1.6 0 .3.1.63.16.94.14.28-.05.18-.27-.52-1.08a7.44 7.44 0 0 1-2-4.68c-.08-.87.03-1.75.32-2.58.3-.74.67-1.45 1.1-2.12l.67-.97c.18-.3.28.87.28 1.17.09.62.34 1.21.73 1.7.15.18.31.33.49.48.28 0 .56-.06.82-.2.17-.1.52-.21.64-.5.12-.28.54-5.39 1.17-6.56.5-.94.6-1.07 1.41-1.07 1.33-.12 1.55-.59 1.65-3.63l.06-2.45.76.44a20.62 20.62 0 0 1 4.39 3.8c.56.7 1.05 1.44 1.46 2.24a5.9 5.9 0 0 1 .6 3.28c-.08.88.05 1.77.36 2.6a1 1 0 0 0 .6.48c.35 0 .93-.93.93-1.4-.05-.73.96.73 1.53 3.07a7.9 7.9 0 0 1-.32 4.9 7.79 7.79 0 0 1-1.55 1.93c-.43.35-.8.77-1.09 1.24 0 .16.27.28.61.16.34-.11.61-.08.61 0 0 .3-1.38 1.3-2.75 1.94-1.35.56-4.25 1.27-4.25 1.27h-1.8c-.04-.12 0 0 0 0Zm-6.79-19.66c-.12.32-.3.6-.55.84-.6.63-.96 1.46-1 2.34-.13.77-.11.95.16.95s1.52-1.35 1.83-2.06a3.6 3.6 0 0 0 0-2.34c-.22-.2-.3-.16-.44.27Z"/></g></svg>