<svg xmlns="http://www.w3.org/2000/svg" xml:space="preserve" style="fill-rule:evenodd;clip-rule:evenodd;stroke-linejoin:round;stroke-miterlimit:2" viewBox="0 0 48 48"><path d="M23 44s-6.6-1.1-9.6-2.5c-1.7-.9-3.8-2.6-3.8-3.2 0-.2.4-.2 1 0 .4.2 1 .3 1.4.2.5 0 .3-.4-.8-1.7a11.8 11.8 0 0 1-2.7-11.5c.5-1.1 1-2.2 1.8-3.3l1-1.5c.3-.5.5 1.3.5 1.8.1 1 .5 2 1.1 2.7l.8.7c.5 0 .9 0 1.3-.2.3-.2.8-.4 1-.8.2-.5.9-8.6 1.9-10.4.8-1.5 1-1.7 2.2-1.7 2-.2 2.4-1 2.6-5.7l.1-4 1.2.8c2.6 1.6 5 3.7 7 6 .8 1 1.6 2.3 2.3 3.5a9.4 9.4 0 0 1 .9 5.2c-.1 1.4 0 2.8.6 4.1.2.4.5.7 1 .8.5 0 1.4-1.5 1.4-2.2 0-1.2 1.5 1.1 2.4 4.8.7 2.6.5 5.3-.5 7.8-.7 1.1-1.5 2.1-2.4 3-.7.6-1.3 1.2-1.8 2 0 .2.5.4 1 .2s1-.1 1 0c0 .5-2.2 2-4.4 3-2.1 1-6.7 2.1-6.7 2.1h-2.9c0-.2 0 0 0 0ZM12.1 13c-.2.4-.5.9-.9 1.2a6 6 0 0 0-1.6 3.7c-.2 1.3-.1 1.5.3 1.5s2.4-2 3-3.2c.3-1.2.3-2.5 0-3.7-.4-.3-.6-.3-.8.4Z" style="fill:#f4511e;fill-rule:nonzero"/></svg>