<svg xmlns="http://www.w3.org/2000/svg" xml:space="preserve" fill-rule="evenodd" stroke-linejoin="round" stroke-miterlimit="2" clip-rule="evenodd" viewBox="0 0 32 32"><path fill="#0070ff" fill-rule="nonzero" d="M16.39 2.5H6.29a2.54 2.54 0 0 0-2.52 2.53v20.19a2.54 2.54 0 0 0 2.52 2.52h7.04a6.72 6.72 0 0 1-1.32-1.13 3.02 3.02 0 0 1-.68-1.4H6.3V5.04h8.83v6.3h6.31V12c.9.2 1.9 1.22 2.53 1.86v-3.79L16.39 2.5"/><g fill-rule="nonzero"><path fill="#f4511e" d="M19.38 13.64c-.07 2.02-.22 2.34-1.1 2.41-.54 0-.61.09-.95.72-.42.78-.7 4.19-.78 4.38-.07.18-.3.26-.43.33a1.1 1.1 0 0 1-.54.13 2.6 2.6 0 0 1-.33-.32 2.34 2.34 0 0 1-.48-1.13c0-.2-.07-.99-.19-.78l-.45.64c-.29.45-.53.92-.73 1.41-.2.56-.27 1.14-.2 1.73a4.96 4.96 0 0 0 1.32 3.12c.47.54.54.68.35.71-.21.02-.42-.02-.63-.09-.22-.07-.4-.08-.4 0 0 .24.88.98 1.6 1.34 1.27.59 2.62.96 4 1.1a8.1 8.1 0 0 1-2.73-1.57 5.7 5.7 0 0 1-1.83-4.24l.07-.31.43.26c.27.16.56.26.87.3.54 0 1-.46 1.21-1.18a19.32 19.32 0 0 1 2.29-5.61c.2-.4.36-.6.46-.78.08-.16.15-.34.19-.51.08-.4.12-.42.3-.27.6.7 1.07 1.49 1.39 2.34.29.7.33 1.05.34 2.7-.02.7.02 1.4.12 2.09.09.11.34.16.91.11.71-.04.78 0 .85.24a2.2 2.2 0 0 1-.38 1.45c-.12.18-.2.39-.21.6 0 .26.06.32.4.32.23 0 .41.04.41.1a5.2 5.2 0 0 1-.42.72 33.2 33.2 0 0 1-3.4 3.2c.95-.19 1.9-.47 2.8-.85.91-.42 1.83-1.08 1.83-1.28 0-.06-.18-.08-.4 0-.23.07-.41 0-.41-.11.2-.32.44-.6.72-.83.41-.37.76-.8 1.03-1.29a5.2 5.2 0 0 0 .22-3.26c-.38-1.56-1.05-2.54-1.02-2.05 0 .32-.39.93-.62.93a.67.67 0 0 1-.4-.32 3.99 3.99 0 0 1-.24-1.73 3.95 3.95 0 0 0-.4-2.19 8.68 8.68 0 0 0-.97-1.49 13.79 13.79 0 0 0-2.93-2.53l-.5-.3-.04 1.64Zm-4.43 2.56c-.08.2-.2.4-.37.56-.4.42-.64.97-.67 1.56-.09.51-.07.63.1.63.19 0 1.02-.9 1.23-1.38.17-.5.17-1.05 0-1.55-.14-.14-.2-.11-.3.18Z"/><path fill="#ff8f00" d="M20.27 15.5c-.08.3-.2.58-.35.85-.08.19-.44.78-.78 1.45a12.03 12.03 0 0 0-1.56 3.63c-.12.5-.27 1-.47 1.47-.38.83-1.09.92-1.87.25l-.39-.34-.08.57a5.4 5.4 0 0 0 .47 2.73c.52 1 1.28 1.85 2.2 2.5.65.27 1.32.5 2 .68a7.5 7.5 0 0 1-1.02-.9 6.84 6.84 0 0 1-1.34-2.5c0-.17.14-.25.52-.28l.5-.04.08-1.08c.03-.58.15-1.15.35-1.7a4.4 4.4 0 0 1 1.56-1.83l.4-.2v1.4c0 2.33.3 2.89 1.45 2.5l.56-.2-.2.48c-.25.6-.25.7 0 .7.27 0 .21.08.13.36-.3.91-.73 1.78-1.28 2.55-.18.24-.34.49-.48.74 0 0 .72-.4 1.1-.64 1.13-.8 2.09-1.8 2.83-2.96l.37-.7-.55.08c-.62.08-.67-.04-.28-.69.34-.51.45-1.15.3-1.74-.13-.33-.2-.36-.4-.24-.38.2-1.2.18-1.32 0-.1-.66-.14-1.33-.12-2a6.47 6.47 0 0 0-1.92-5.23l-.3-.2-.11.52Z"/><path fill="#fff9c4" d="m21.01 25.98 1.02.66-.65 1.73-.71.93h-1.22l-1.38-1.88-.05-.96.72-.1.83-1.75.48-.19.96 1.56Z"/><path fill="#ffd54f" d="M20.05 20.78c-.73.45-1.3 1.1-1.65 1.88-.2.54-.32 1.12-.35 1.7l-.09 1.08H16.8l.09.42c.26.99.74 1.9 1.4 2.67.35.33.75.59 1.19.78 0-.05-.34-.51-.63-.95a4.78 4.78 0 0 1-.63-1.2c-.08-.37-.05-.4.2-.33a.6.6 0 0 0 .46-.06c.21-.32.38-.67.5-1.03.32-.86.43-1.12.55-.7.14.4.3.77.5 1.14.27.59.57.56 1 .56h.38l-.19.55c-.16.42-.34.82-.54 1.22l-.41.78s.33-.35.48-.48c.23-.25.44-.54.6-.84a16 16 0 0 0 1.02-2.49c0-.13.1-.2-.06-.14l-.47.17.33-.78.3-.82-.34.26c-.24.17-.5.3-.78.4-.37.1-.5.1-.7-.13-.33-.32-.46-1.2-.39-2.7.04-.4.04-.81 0-1.22-.08 0-.34.14-.61.26Z"/></g></svg>