<svg xmlns="http://www.w3.org/2000/svg" xml:space="preserve" fill-rule="evenodd" stroke-linejoin="round" stroke-miterlimit="2" clip-rule="evenodd" viewBox="0 0 48 48"><path fill="#f4511e" fill-rule="nonzero" d="M12 4h16l12 12v24c0 2.2-1.8 4-4 4H12c-2.2 0-4-1.8-4-4V8c0-2.2 1.8-4 4-4Zm18.3 25.11c-.25-.33-.57-.62-.85-.91-.75-.67-1.6-1.14-2.3-1.84a5.53 5.53 0 0 1-.97-6.36 7.2 7.2 0 0 0-2.77 1.47 8.77 8.77 0 0 0-2.65 9.89c.04.1.08.22.08.36 0 .25-.16.47-.38.56a.74.74 0 0 1-.74-.13 5.56 5.56 0 0 1-.77-5.88 7.92 7.92 0 0 0-2.72 6.47c.07.56.14 1.12.33 1.67.15.67.45 1.34.79 1.92a7.78 7.78 0 0 0 5.5 3.58c2.38.3 4.93-.13 6.75-1.78a6.58 6.58 0 0 0 1.7-7.33l-.14-.29c-.24-.51-.86-1.4-.86-1.4ZM26 7v11h11L26 7Z"/></svg>